<?xml version="1.0" encoding="utf-8"?>
<!-- Generator: Adobe Illustrator 20.1.0, SVG Export Plug-In . SVG Version: 6.00 Build 0)  -->
<svg version="1.1" id="Layer_1" xmlns="http://www.w3.org/2000/svg" xmlns:xlink="http://www.w3.org/1999/xlink" x="0px" y="0px"
	 viewBox="0 0 295.3 247.6" style="enable-background:new 0 0 295.3 247.6;" xml:space="preserve">
<style type="text/css">
	.st0{fill:#3097D2;stroke:#3097D3;stroke-width:18;stroke-miterlimit:10;}
</style>
<path class="st0" d="M279.3,45c-4.7-8.9-11.5-16.2-20.3-21.8c-8.1-5.2-18.1-8.8-29.9-11C217.2,10.1,202.8,9,185.9,9
	c-2.5,0-5.8,0-9.9,0c-4,0-8.2,0.1-12.4,0.1c0.3,18.8,0.5,35.8,0.6,51.1c0.1,15.3,0.1,28.3,0.1,38.8c0,33.2-0.1,57.7-0.3,73.6
	c-0.1,11.8-0.3,20.9-0.4,27.2c-27.3-23.7-55.9-49.1-86-76.1C46.4,95.5,30,80.6,28.6,79.1L12.4,98.9c1.6,1.4,19.1,16.6,52.5,45.6
	s68.6,59.8,105.6,92.6l17.7-8c0.1-27.8,0.2-56.4,0.4-85.7c9.2,0,17.6-0.4,25.1-1.2c7.8-0.8,15.1-2.1,21.7-3.8
	c15.4-4.1,27.7-11.9,36.9-23.4c9.2-11.5,13.8-24.4,13.8-38.7C286.3,64.3,284,53.9,279.3,45z M254.2,102.3
	c-4.8,6.9-11.8,12.4-21,16.3c-5.3,2.3-11.6,4-19,4.8c-7.4,0.9-14.3,1.3-20.9,1.3c-0.7,0-1.6,0-2.8,0c-0.6,0-1.1,0-1.6,0
	c0.1-11.2,0.2-22.4,0.3-33.8c0.3-30.3,0.5-51.2,0.6-62.9c0.3,0,0.6,0,0.9,0c0.9,0,1.8,0,2.6,0c7.2,0,14.3,0.3,21.1,1
	c6.8,0.6,13.2,2.2,19,4.8c9.5,4.1,16.5,9.7,21.1,16.8c4.6,7.1,6.9,15.7,6.9,25.7C261.4,86.7,259,95.4,254.2,102.3z"/>
</svg>
